<mxfile host="app.diagrams.net" modified="2022-02-14T21:23:54.247Z" agent="5.0 (Windows NT 10.0; Win64; x64) AppleWebKit/537.36 (KHTML, like Gecko) Chrome/98.0.4758.82 Safari/537.36" etag="ZBNQ_MNRV-KntL8ms7kS" version="16.5.6" type="github">
  <diagram id="czeYtxCxRM8ObdpQRXwS" name="Page-1">
    <mxGraphModel dx="942" dy="642" grid="1" gridSize="10" guides="1" tooltips="1" connect="1" arrows="1" fold="1" page="1" pageScale="1" pageWidth="50000" pageHeight="50000" math="0" shadow="0">
      <root>
        <mxCell id="0" />
        <mxCell id="1" parent="0" />
        <mxCell id="46LosdDzDrLffaNwuIow-5" value="DatabaseConn" style="swimlane;fontStyle=1;align=center;verticalAlign=top;childLayout=stackLayout;horizontal=1;startSize=26;horizontalStack=0;resizeParent=1;resizeParentMax=0;resizeLast=0;collapsible=1;marginBottom=0;" parent="1" vertex="1">
          <mxGeometry x="1720" y="1290" width="380" height="260" as="geometry" />
        </mxCell>
        <mxCell id="46LosdDzDrLffaNwuIow-6" value="- conn: connection" style="text;strokeColor=none;fillColor=none;align=left;verticalAlign=top;spacingLeft=4;spacingRight=4;overflow=hidden;rotatable=0;points=[[0,0.5],[1,0.5]];portConstraint=eastwest;" parent="46LosdDzDrLffaNwuIow-5" vertex="1">
          <mxGeometry y="26" width="380" height="26" as="geometry" />
        </mxCell>
        <mxCell id="46LosdDzDrLffaNwuIow-7" value="" style="line;strokeWidth=1;fillColor=none;align=left;verticalAlign=middle;spacingTop=-1;spacingLeft=3;spacingRight=3;rotatable=0;labelPosition=right;points=[];portConstraint=eastwest;" parent="46LosdDzDrLffaNwuIow-5" vertex="1">
          <mxGeometry y="52" width="380" height="8" as="geometry" />
        </mxCell>
        <mxCell id="46LosdDzDrLffaNwuIow-8" value="+addUser(user:User) : boolean&#xa;+getMyCircles(user:User) : LinkedList&lt;Circle&gt;&#xa;+getAllCircles() : LinkedList&lt;Circle&gt;&#xa;+getUser(username:String) : User&#xa;+getMovie(movieName:String) : Movie&#xa;+addMovie ???&#xa;+updateUser(username:String, user:User) : boolean&#xa;+getAllMovies() : LinkedList&lt;Movie&gt;&#xa;+addCircle(id:int, circle:Circle) : boolean&#xa;+addCommentRating(circleInfo:GradeAndComment) : boolean&#xa;+deleteUser(user:User) : boolean&#xa;&#xa;&#xa;&#xa;" style="text;strokeColor=none;fillColor=none;align=left;verticalAlign=top;spacingLeft=4;spacingRight=4;overflow=hidden;rotatable=0;points=[[0,0.5],[1,0.5]];portConstraint=eastwest;whiteSpace=wrap;" parent="46LosdDzDrLffaNwuIow-5" vertex="1">
          <mxGeometry y="60" width="380" height="200" as="geometry" />
        </mxCell>
        <mxCell id="3OgGzo2SByA_cm2bsDLw-1" value="Circle" style="swimlane;fontStyle=1;align=center;verticalAlign=top;childLayout=stackLayout;horizontal=1;startSize=26;horizontalStack=0;resizeParent=1;resizeParentMax=0;resizeLast=0;collapsible=1;marginBottom=0;" parent="1" vertex="1">
          <mxGeometry x="1480" y="1150" width="160" height="194" as="geometry" />
        </mxCell>
        <mxCell id="3OgGzo2SByA_cm2bsDLw-2" value="- id: int&#xa;- name : String&#xa;- creator : String&#xa;- members : String[]&#xa;- description : String&#xa;- startTime : Date&#xa;- stopTime: Date&#xa;- movies: LinkedList&lt;Movie&gt;&#xa;" style="text;strokeColor=none;fillColor=none;align=left;verticalAlign=top;spacingLeft=4;spacingRight=4;overflow=hidden;rotatable=0;points=[[0,0.5],[1,0.5]];portConstraint=eastwest;" parent="3OgGzo2SByA_cm2bsDLw-1" vertex="1">
          <mxGeometry y="26" width="160" height="134" as="geometry" />
        </mxCell>
        <mxCell id="3OgGzo2SByA_cm2bsDLw-3" value="" style="line;strokeWidth=1;fillColor=none;align=left;verticalAlign=middle;spacingTop=-1;spacingLeft=3;spacingRight=3;rotatable=0;labelPosition=right;points=[];portConstraint=eastwest;" parent="3OgGzo2SByA_cm2bsDLw-1" vertex="1">
          <mxGeometry y="160" width="160" height="8" as="geometry" />
        </mxCell>
        <mxCell id="3OgGzo2SByA_cm2bsDLw-4" value="+ method(type): type" style="text;strokeColor=none;fillColor=none;align=left;verticalAlign=top;spacingLeft=4;spacingRight=4;overflow=hidden;rotatable=0;points=[[0,0.5],[1,0.5]];portConstraint=eastwest;" parent="3OgGzo2SByA_cm2bsDLw-1" vertex="1">
          <mxGeometry y="168" width="160" height="26" as="geometry" />
        </mxCell>
        <mxCell id="egLKUnMWFmZdAxHy4EYi-1" value="Mycircles" style="swimlane;fontStyle=1;align=center;verticalAlign=top;childLayout=stackLayout;horizontal=1;startSize=26;horizontalStack=0;resizeParent=1;resizeParentMax=0;resizeLast=0;collapsible=1;marginBottom=0;" parent="1" vertex="1">
          <mxGeometry x="2200" y="1180" width="160" height="86" as="geometry" />
        </mxCell>
        <mxCell id="egLKUnMWFmZdAxHy4EYi-2" value="- Mycircles: CircleÂ " style="text;strokeColor=none;fillColor=none;align=left;verticalAlign=top;spacingLeft=4;spacingRight=4;overflow=hidden;rotatable=0;points=[[0,0.5],[1,0.5]];portConstraint=eastwest;" parent="egLKUnMWFmZdAxHy4EYi-1" vertex="1">
          <mxGeometry y="26" width="160" height="26" as="geometry" />
        </mxCell>
        <mxCell id="egLKUnMWFmZdAxHy4EYi-3" value="" style="line;strokeWidth=1;fillColor=none;align=left;verticalAlign=middle;spacingTop=-1;spacingLeft=3;spacingRight=3;rotatable=0;labelPosition=right;points=[];portConstraint=eastwest;" parent="egLKUnMWFmZdAxHy4EYi-1" vertex="1">
          <mxGeometry y="52" width="160" height="8" as="geometry" />
        </mxCell>
        <mxCell id="egLKUnMWFmZdAxHy4EYi-4" value="+ Listmycircles(): void" style="text;strokeColor=none;fillColor=none;align=left;verticalAlign=top;spacingLeft=4;spacingRight=4;overflow=hidden;rotatable=0;points=[[0,0.5],[1,0.5]];portConstraint=eastwest;" parent="egLKUnMWFmZdAxHy4EYi-1" vertex="1">
          <mxGeometry y="60" width="160" height="26" as="geometry" />
        </mxCell>
        <mxCell id="8Do-b4mo3wIUdCFwqy2j-4" value="Movie" style="swimlane;fontStyle=1;align=center;verticalAlign=top;childLayout=stackLayout;horizontal=1;startSize=26;horizontalStack=0;resizeParent=1;resizeParentMax=0;resizeLast=0;collapsible=1;marginBottom=0;" parent="1" vertex="1">
          <mxGeometry x="1160" y="1290" width="160" height="134" as="geometry" />
        </mxCell>
        <mxCell id="8Do-b4mo3wIUdCFwqy2j-5" value="-name : string&#xa;-avgGrade : double&#xa;-movieDescription : string&#xa;-poster : image" style="text;strokeColor=none;fillColor=none;align=left;verticalAlign=top;spacingLeft=4;spacingRight=4;overflow=hidden;rotatable=0;points=[[0,0.5],[1,0.5]];portConstraint=eastwest;" parent="8Do-b4mo3wIUdCFwqy2j-4" vertex="1">
          <mxGeometry y="26" width="160" height="74" as="geometry" />
        </mxCell>
        <mxCell id="8Do-b4mo3wIUdCFwqy2j-6" value="" style="line;strokeWidth=1;fillColor=none;align=left;verticalAlign=middle;spacingTop=-1;spacingLeft=3;spacingRight=3;rotatable=0;labelPosition=right;points=[];portConstraint=eastwest;" parent="8Do-b4mo3wIUdCFwqy2j-4" vertex="1">
          <mxGeometry y="100" width="160" height="8" as="geometry" />
        </mxCell>
        <mxCell id="8Do-b4mo3wIUdCFwqy2j-7" value="+getMovie() : Movie" style="text;strokeColor=none;fillColor=none;align=left;verticalAlign=top;spacingLeft=4;spacingRight=4;overflow=hidden;rotatable=0;points=[[0,0.5],[1,0.5]];portConstraint=eastwest;" parent="8Do-b4mo3wIUdCFwqy2j-4" vertex="1">
          <mxGeometry y="108" width="160" height="26" as="geometry" />
        </mxCell>
        <mxCell id="8Do-b4mo3wIUdCFwqy2j-8" value="CircleDetails" style="swimlane;fontStyle=1;align=center;verticalAlign=top;childLayout=stackLayout;horizontal=1;startSize=26;horizontalStack=0;resizeParent=1;resizeParentMax=0;resizeLast=0;collapsible=1;marginBottom=0;" parent="1" vertex="1">
          <mxGeometry x="1160" y="1460" width="160" height="86" as="geometry" />
        </mxCell>
        <mxCell id="8Do-b4mo3wIUdCFwqy2j-9" value="-thisCircle : Circle" style="text;strokeColor=none;fillColor=none;align=left;verticalAlign=top;spacingLeft=4;spacingRight=4;overflow=hidden;rotatable=0;points=[[0,0.5],[1,0.5]];portConstraint=eastwest;" parent="8Do-b4mo3wIUdCFwqy2j-8" vertex="1">
          <mxGeometry y="26" width="160" height="26" as="geometry" />
        </mxCell>
        <mxCell id="8Do-b4mo3wIUdCFwqy2j-10" value="" style="line;strokeWidth=1;fillColor=none;align=left;verticalAlign=middle;spacingTop=-1;spacingLeft=3;spacingRight=3;rotatable=0;labelPosition=right;points=[];portConstraint=eastwest;" parent="8Do-b4mo3wIUdCFwqy2j-8" vertex="1">
          <mxGeometry y="52" width="160" height="8" as="geometry" />
        </mxCell>
        <mxCell id="8Do-b4mo3wIUdCFwqy2j-11" value="+ method(type): type" style="text;strokeColor=none;fillColor=none;align=left;verticalAlign=top;spacingLeft=4;spacingRight=4;overflow=hidden;rotatable=0;points=[[0,0.5],[1,0.5]];portConstraint=eastwest;" parent="8Do-b4mo3wIUdCFwqy2j-8" vertex="1">
          <mxGeometry y="60" width="160" height="26" as="geometry" />
        </mxCell>
        <mxCell id="egLKUnMWFmZdAxHy4EYi-6" value="GradeAndComment" style="swimlane;fontStyle=1;align=center;verticalAlign=top;childLayout=stackLayout;horizontal=1;startSize=26;horizontalStack=0;resizeParent=1;resizeParentMax=0;resizeLast=0;collapsible=1;marginBottom=0;" parent="1" vertex="1">
          <mxGeometry x="2200" y="1350" width="160" height="170" as="geometry" />
        </mxCell>
        <mxCell id="egLKUnMWFmZdAxHy4EYi-7" value="-circle:Circle" style="text;strokeColor=none;fillColor=none;align=left;verticalAlign=top;spacingLeft=4;spacingRight=4;overflow=hidden;rotatable=0;points=[[0,0.5],[1,0.5]];portConstraint=eastwest;" parent="egLKUnMWFmZdAxHy4EYi-6" vertex="1">
          <mxGeometry y="26" width="160" height="26" as="geometry" />
        </mxCell>
        <mxCell id="egLKUnMWFmZdAxHy4EYi-8" value="" style="line;strokeWidth=1;fillColor=none;align=left;verticalAlign=middle;spacingTop=-1;spacingLeft=3;spacingRight=3;rotatable=0;labelPosition=right;points=[];portConstraint=eastwest;" parent="egLKUnMWFmZdAxHy4EYi-6" vertex="1">
          <mxGeometry y="52" width="160" height="8" as="geometry" />
        </mxCell>
        <mxCell id="egLKUnMWFmZdAxHy4EYi-9" value="+ Grade(): void&#xa;+ Comment():void&#xa;+ getUser():User&#xa;+ getCircle():Circle&#xa;+ getMovie():Movie" style="text;strokeColor=none;fillColor=none;align=left;verticalAlign=top;spacingLeft=4;spacingRight=4;overflow=hidden;rotatable=0;points=[[0,0.5],[1,0.5]];portConstraint=eastwest;" parent="egLKUnMWFmZdAxHy4EYi-6" vertex="1">
          <mxGeometry y="60" width="160" height="110" as="geometry" />
        </mxCell>
        <mxCell id="egLKUnMWFmZdAxHy4EYi-10" value="Settings" style="swimlane;fontStyle=1;align=center;verticalAlign=top;childLayout=stackLayout;horizontal=1;startSize=26;horizontalStack=0;resizeParent=1;resizeParentMax=0;resizeLast=0;collapsible=1;marginBottom=0;" parent="1" vertex="1">
          <mxGeometry x="2200" y="1570" width="160" height="168" as="geometry" />
        </mxCell>
        <mxCell id="egLKUnMWFmZdAxHy4EYi-11" value="-Nightmode:Bool&#xa;-user:User" style="text;strokeColor=none;fillColor=none;align=left;verticalAlign=top;spacingLeft=4;spacingRight=4;overflow=hidden;rotatable=0;points=[[0,0.5],[1,0.5]];portConstraint=eastwest;" parent="egLKUnMWFmZdAxHy4EYi-10" vertex="1">
          <mxGeometry y="26" width="160" height="44" as="geometry" />
        </mxCell>
        <mxCell id="egLKUnMWFmZdAxHy4EYi-12" value="" style="line;strokeWidth=1;fillColor=none;align=left;verticalAlign=middle;spacingTop=-1;spacingLeft=3;spacingRight=3;rotatable=0;labelPosition=right;points=[];portConstraint=eastwest;" parent="egLKUnMWFmZdAxHy4EYi-10" vertex="1">
          <mxGeometry y="70" width="160" height="8" as="geometry" />
        </mxCell>
        <mxCell id="egLKUnMWFmZdAxHy4EYi-13" value="&#xa;&#xa;+ ToggelNightmode():void&#xa;+ Changepassword():void&#xa;+ deleteUser():void&#xa;" style="text;strokeColor=none;fillColor=none;align=left;verticalAlign=top;spacingLeft=4;spacingRight=4;overflow=hidden;rotatable=0;points=[[0,0.5],[1,0.5]];portConstraint=eastwest;" parent="egLKUnMWFmZdAxHy4EYi-10" vertex="1">
          <mxGeometry y="78" width="160" height="90" as="geometry" />
        </mxCell>
      </root>
    </mxGraphModel>
  </diagram>
</mxfile>
